<svg width="24" height="24" viewBox="0 0 24 24" xmlns="http://www.w3.org/2000/svg"><path d="M18.258 16.849c-.558.292-1.803.688-3.018.688-1.324 0-2.57-.396-3.416-1.351-.399-.448-.69-1.06-.875-1.854h6.648v-1.88H10.58v-.423c0-.292 0-.555.025-.822h6.993v-1.88h-6.594c.187-.688.448-1.297.848-1.72.819-.982 1.987-1.431 3.232-1.431 1.161 0 2.276.345 2.964.636l.74-3.018C17.832 3.37 16.405 3 14.814 3 12.301 3 10.181 4.005 8.7 5.728a8.05 8.05 0 0 0-1.827 3.6H5.097v1.88h1.485c0 .266-.027.53-.027.794v.45H5.097v1.881h1.724c.238 1.406.766 2.542 1.482 3.442 1.484 1.959 3.839 3.019 6.459 3.019 1.696 0 3.233-.504 4.132-1.004l-.636-2.941z" fill="#000" fill-rule="evenodd"/></svg>